REM DIRINDEX 1\2,1\4,1\3\5,1\3\6,1\3\7
REM DIRNAME cjc082,folder01,folder02,folder03,folder04,folder05,folder06
TITLE ""
FILE "CD2Track24.mp3" MP3
  TRACK 01 AUDIO
    TITLE "0:"
    INDEX 01 00:00:00
  TRACK 02 AUDIO
    TITLE "5:cjc082_1751"
    INDEX 01 00:00:29
  TRACK 03 AUDIO
    TITLE "0:"
    INDEX 01 00:01:54
  TRACK 04 AUDIO
    TITLE "6:cjc082_1752"
    INDEX 01 00:02:34
  TRACK 05 AUDIO
    TITLE "0:"
    INDEX 01 00:04:17
  TRACK 06 AUDIO
    TITLE "5:cjc082_1753"
    INDEX 01 00:04:62
  TRACK 07 AUDIO
    TITLE "0:"
    INDEX 01 00:06:10
  TRACK 08 AUDIO
    TITLE "6:cjc082_1754"
    INDEX 01 00:06:59
  TRACK 09 AUDIO
    TITLE "0:"
    INDEX 01 00:09:02
  TRACK 10 AUDIO
    TITLE "5:cjc082_1755"
    INDEX 01 00:09:47
  TRACK 11 AUDIO
    TITLE "0:"
    INDEX 01 00:10:66
  TRACK 12 AUDIO
    TITLE "6:cjc082_1756"
    INDEX 01 00:11:42
  TRACK 13 AUDIO
    TITLE "0:"
    INDEX 01 00:13:22
  TRACK 14 AUDIO
    TITLE "5:cjc082_1757"
    INDEX 01 00:13:71
  TRACK 15 AUDIO
    TITLE "0:"
    INDEX 01 00:15:19
  TRACK 16 AUDIO
    TITLE "6:cjc082_1758"
    INDEX 01 00:15:68
  TRACK 17 AUDIO
    TITLE "0:"
    INDEX 01 00:18:50
  TRACK 18 AUDIO
    TITLE "5:cjc082_1759"
    INDEX 01 00:19:18
  TRACK 19 AUDIO
    TITLE "0:"
    INDEX 01 00:20:39
  TRACK 20 AUDIO
    TITLE "6:cjc082_1760"
    INDEX 01 00:21:09
  TRACK 21 AUDIO
    TITLE "0:"
    INDEX 01 00:23:30
  TRACK 22 AUDIO
    TITLE "5:cjc082_1761"
    INDEX 01 00:24:02
  TRACK 23 AUDIO
    TITLE "0:"
    INDEX 01 00:25:54
  TRACK 24 AUDIO
    TITLE "6:cjc082_1762"
    INDEX 01 00:26:22
  TRACK 25 AUDIO
    TITLE "0:"
    INDEX 01 00:28:23
  TRACK 26 AUDIO
    TITLE "5:cjc082_1763"
    INDEX 01 00:28:68
  TRACK 27 AUDIO
    TITLE "0:"
    INDEX 01 00:30:10
  TRACK 28 AUDIO
    TITLE "6:cjc082_1764"
    INDEX 01 00:30:59
  TRACK 29 AUDIO
    TITLE "0:"
    INDEX 01 00:35:08
  TRACK 30 AUDIO
    TITLE "5:cjc082_1765"
    INDEX 01 00:35:57
  TRACK 31 AUDIO
    TITLE "0:"
    INDEX 01 00:37:14
  TRACK 32 AUDIO
    TITLE "6:cjc082_1766"
    INDEX 01 00:37:59
  TRACK 33 AUDIO
    TITLE "0:"
    INDEX 01 00:39:21
  TRACK 34 AUDIO
    TITLE "5:cjc082_1767"
    INDEX 01 00:39:66
  TRACK 35 AUDIO
    TITLE "0:"
    INDEX 01 00:41:16
  TRACK 36 AUDIO
    TITLE "6:cjc082_1768"
    INDEX 01 00:41:65
  TRACK 37 AUDIO
    TITLE "0:"
    INDEX 01 00:42:55
  TRACK 38 AUDIO
    TITLE "5:cjc082_1769"
    INDEX 01 00:43:23
  TRACK 39 AUDIO
    TITLE "0:"
    INDEX 01 00:44:63
  TRACK 40 AUDIO
    TITLE "6:cjc082_1770"
    INDEX 01 00:45:32
  TRACK 41 AUDIO
    TITLE "0:"
    INDEX 01 00:49:18
  TRACK 42 AUDIO
    TITLE "5:cjc082_1771"
    INDEX 01 00:49:70
  TRACK 43 AUDIO
    TITLE "0:"
    INDEX 01 00:51:34
  TRACK 44 AUDIO
    TITLE "6:cjc082_1772"
    INDEX 01 00:52:04
  TRACK 45 AUDIO
    TITLE "0:"
    INDEX 01 00:53:09
  TRACK 46 AUDIO
    TITLE "5:cjc082_1773"
    INDEX 01 00:53:58
  TRACK 47 AUDIO
    TITLE "0:"
    INDEX 01 00:55:14
  TRACK 48 AUDIO
    TITLE "6:cjc082_1774"
    INDEX 01 00:55:63
  TRACK 49 AUDIO
    TITLE "0:"
    INDEX 01 00:57:45
  TRACK 50 AUDIO
    TITLE "5:cjc082_1775"
    INDEX 01 00:58:15
  TRACK 51 AUDIO
    TITLE "0:"
    INDEX 01 00:59:20
  TRACK 52 AUDIO
    TITLE "6:cjc082_1776"
    INDEX 01 00:59:69
  TRACK 53 AUDIO
    TITLE "0:"
    INDEX 01 01:01:19
  TRACK 54 AUDIO
    TITLE "5:cjc082_1777"
    INDEX 01 01:01:66
  TRACK 55 AUDIO
    TITLE "0:"
    INDEX 01 01:03:14
  TRACK 56 AUDIO
    TITLE "6:cjc082_1778"
    INDEX 01 01:03:59
  TRACK 57 AUDIO
    TITLE "0:"
    INDEX 01 01:04:72
  TRACK 58 AUDIO
    TITLE "7:cjc082_1779"
    INDEX 01 01:06:38
  TRACK 59 AUDIO
    TITLE "0:"
    INDEX 01 01:17:28
